<?xml version="1.0" encoding="UTF-8" standalone="no"?>
<!DOCTYPE svg PUBLIC "-//W3C//DTD SVG 1.1//EN"
 "http://www.w3.org/Graphics/SVG/1.1/DTD/svg11.dtd">
<!-- Generated by graphviz version 2.42.4 (0)
 -->
<!-- Title: G Pages: 1 -->
<svg width="1489pt" height="996pt"
 viewBox="3.60 3.60 1485.80 992.80" xmlns="http://www.w3.org/2000/svg" xmlns:xlink="http://www.w3.org/1999/xlink">
<g id="graph0" class="graph" transform="scale(1 1) rotate(0) translate(25.2 971.2)">
<title>G</title>
<polygon fill="white" stroke="transparent" points="-21.6,21.6 -21.6,-967.6 1460.6,-967.6 1460.6,21.6 -21.6,21.6"/>
<text text-anchor="middle" x="719.5" y="-926" font-family="Times New Roman" font-size="20.00">LogRider runtime architecture &#45; connected flow</text>
<!-- Producer -->
<g id="node1" class="node">
<title>Producer</title>
<path fill="#f5f3ff" stroke="#334155" stroke-width="1.2" d="M113,-274C113,-274 12,-274 12,-274 6,-274 0,-268 0,-262 0,-262 0,-250 0,-250 0,-244 6,-238 12,-238 12,-238 113,-238 113,-238 119,-238 125,-244 125,-250 125,-250 125,-262 125,-262 125,-268 119,-274 113,-274"/>
<text text-anchor="start" x="21" y="-258.1" font-family="Times New Roman" font-size="13.00">Log producer</text>
<text text-anchor="start" x="9" y="-247.5" font-family="Times New Roman" font-size="10.00">load tests / applications</text>
</g>
<!-- Pandaproxy -->
<g id="node4" class="node">
<title>Pandaproxy</title>
<path fill="#fce7f3" stroke="#334155" stroke-width="1.2" d="M484,-274C484,-274 348,-274 348,-274 342,-274 336,-268 336,-262 336,-262 336,-250 336,-250 336,-244 342,-238 348,-238 348,-238 484,-238 484,-238 490,-238 496,-244 496,-250 496,-250 496,-262 496,-262 496,-268 490,-274 484,-274"/>
<text text-anchor="start" x="345" y="-258.1" font-family="Times New Roman" font-size="13.00">Redpanda Pandaproxy</text>
<text text-anchor="start" x="388.5" y="-247.5" font-family="Times New Roman" font-size="10.00">HTTP :8082</text>
</g>
<!-- Producer&#45;&gt;Pandaproxy -->
<g id="edge1" class="edge">
<title>Producer&#45;&gt;Pandaproxy</title>
<path fill="none" stroke="#334155" stroke-width="1.1" d="M125.29,-256C125.29,-256 328.79,-256 328.79,-256"/>
<polygon fill="#334155" stroke="#334155" stroke-width="1.1" points="328.79,-258.45 335.79,-256 328.79,-253.55 328.79,-258.45"/>
<text text-anchor="middle" x="230.5" y="-259" font-family="Times New Roman" font-size="10.00">POST /topics/logs&#45;ingested</text>
</g>
<!-- Browser -->
<g id="node2" class="node">
<title>Browser</title>
<path fill="#f5f3ff" stroke="#334155" stroke-width="1.2" d="M89,-744C89,-744 36,-744 36,-744 30,-744 24,-738 24,-732 24,-732 24,-720 24,-720 24,-714 30,-708 36,-708 36,-708 89,-708 89,-708 95,-708 101,-714 101,-720 101,-720 101,-732 101,-732 101,-738 95,-744 89,-744"/>
<text text-anchor="start" x="37" y="-728.1" font-family="Times New Roman" font-size="13.00">Browser</text>
<text text-anchor="start" x="33" y="-717.5" font-family="Times New Roman" font-size="10.00">console user</text>
</g>
<!-- Web -->
<g id="node5" class="node">
<title>Web</title>
<path fill="#fce7f3" stroke="#334155" stroke-width="1.2" d="M470,-744C470,-744 362,-744 362,-744 356,-744 350,-738 350,-732 350,-732 350,-720 350,-720 350,-714 356,-708 362,-708 362,-708 470,-708 470,-708 476,-708 482,-714 482,-720 482,-720 482,-732 482,-732 482,-738 476,-744 470,-744"/>
<text text-anchor="start" x="381" y="-728.1" font-family="Times New Roman" font-size="13.00">web&#45;server</text>
<text text-anchor="start" x="359" y="-717.5" font-family="Times New Roman" font-size="10.00">Bun + HTML + REST + WS</text>
</g>
<!-- Browser&#45;&gt;Web -->
<g id="edge22" class="edge">
<title>Browser&#45;&gt;Web</title>
<path fill="none" stroke="#334155" stroke-width="1.1" d="M108,-726C108,-726 342.93,-726 342.93,-726"/>
<polygon fill="#334155" stroke="#334155" stroke-width="1.1" points="342.93,-728.45 349.93,-726 342.93,-723.55 342.93,-728.45"/>
<polygon fill="#334155" stroke="#334155" stroke-width="1.1" points="108,-723.55 101,-726 108,-728.45 108,-723.55"/>
<text text-anchor="middle" x="230.5" y="-729" font-family="Times New Roman" font-size="10.00">HTTP pages + REST + /api/ws</text>
</g>
<!-- TelegramUser -->
<g id="node3" class="node">
<title>TelegramUser</title>
<path fill="#f5f3ff" stroke="#334155" stroke-width="1.2" d="M103.5,-36C103.5,-36 21.5,-36 21.5,-36 15.5,-36 9.5,-30 9.5,-24 9.5,-24 9.5,-12 9.5,-12 9.5,-6 15.5,0 21.5,0 21.5,0 103.5,0 103.5,0 109.5,0 115.5,-6 115.5,-12 115.5,-12 115.5,-24 115.5,-24 115.5,-30 109.5,-36 103.5,-36"/>
<text text-anchor="start" x="18.5" y="-20.1" font-family="Times New Roman" font-size="13.00">Telegram user</text>
<text text-anchor="start" x="26" y="-9.5" font-family="Times New Roman" font-size="10.00">chat commands</text>
</g>
<!-- Bot -->
<g id="node6" class="node">
<title>Bot</title>
<path fill="#fce7f3" stroke="#334155" stroke-width="1.2" d="M465.5,-36C465.5,-36 366.5,-36 366.5,-36 360.5,-36 354.5,-30 354.5,-24 354.5,-24 354.5,-12 354.5,-12 354.5,-6 360.5,0 366.5,0 366.5,0 465.5,0 465.5,0 471.5,0 477.5,-6 477.5,-12 477.5,-12 477.5,-24 477.5,-24 477.5,-30 471.5,-36 465.5,-36"/>
<text text-anchor="start" x="375.5" y="-20.1" font-family="Times New Roman" font-size="13.00">telegram&#45;bot</text>
<text text-anchor="start" x="363.5" y="-9.5" font-family="Times New Roman" font-size="10.00">Go + Telegram Bot API</text>
</g>
<!-- TelegramUser&#45;&gt;Bot -->
<g id="edge26" class="edge">
<title>TelegramUser&#45;&gt;Bot</title>
<path fill="none" stroke="#334155" stroke-width="1.1" d="M122.81,-18C122.81,-18 347.22,-18 347.22,-18"/>
<polygon fill="#334155" stroke="#334155" stroke-width="1.1" points="347.22,-20.45 354.22,-18 347.22,-15.55 347.22,-20.45"/>
<polygon fill="#334155" stroke="#334155" stroke-width="1.1" points="122.81,-15.55 115.81,-18 122.81,-20.45 122.81,-15.55"/>
<text text-anchor="middle" x="230.5" y="-21" font-family="Times New Roman" font-size="10.00">/link /subscribe /status</text>
</g>
<!-- TIngested -->
<g id="node7" class="node">
<title>TIngested</title>
<path fill="#fef3c7" stroke="#334155" stroke-width="1.2" d="M673.5,-274C673.5,-274 596.5,-274 596.5,-274 590.5,-274 584.5,-268 584.5,-262 584.5,-262 584.5,-250 584.5,-250 584.5,-244 590.5,-238 596.5,-238 596.5,-238 673.5,-238 673.5,-238 679.5,-238 685.5,-244 685.5,-250 685.5,-250 685.5,-262 685.5,-262 685.5,-268 679.5,-274 673.5,-274"/>
<text text-anchor="middle" x="635" y="-252.6" font-family="Times New Roman" font-size="13.00">logs&#45;ingested</text>
</g>
<!-- Pandaproxy&#45;&gt;TIngested -->
<g id="edge2" class="edge">
<title>Pandaproxy&#45;&gt;TIngested</title>
<path fill="none" stroke="#334155" stroke-width="1.1" d="M496.3,-256C496.3,-256 577.29,-256 577.29,-256"/>
<polygon fill="#334155" stroke="#334155" stroke-width="1.1" points="577.29,-258.45 584.29,-256 577.29,-253.55 577.29,-258.45"/>
</g>
<!-- Redis -->
<g id="node20" class="node">
<title>Redis</title>
<path fill="#e0f2fe" stroke="#334155" stroke-width="1.2" d="M1418.5,-291C1418.5,-291 1296.5,-291 1296.5,-291 1290.5,-291 1284.5,-285 1284.5,-279 1284.5,-279 1284.5,-267 1284.5,-267 1284.5,-261 1290.5,-255 1296.5,-255 1296.5,-255 1418.5,-255 1418.5,-255 1424.5,-255 1430.5,-261 1430.5,-267 1430.5,-267 1430.5,-279 1430.5,-279 1430.5,-285 1424.5,-291 1418.5,-291"/>
<text text-anchor="start" x="1340.5" y="-275.1" font-family="Times New Roman" font-size="13.00">Redis</text>
<text text-anchor="start" x="1293.5" y="-264.5" font-family="Times New Roman" font-size="10.00">pub/sub + dedup + sessions</text>
</g>
<!-- Web&#45;&gt;Redis -->
<g id="edge25" class="edge">
<title>Web&#45;&gt;Redis</title>
<path fill="none" stroke="#334155" stroke-width="1.1" d="M489.17,-717C489.17,-717 1306,-717 1306,-717 1306,-717 1306,-298.23 1306,-298.23"/>
<polygon fill="#334155" stroke="#334155" stroke-width="1.1" points="489.17,-714.55 482.17,-717 489.17,-719.45 489.17,-714.55"/>
<polygon fill="#334155" stroke="#334155" stroke-width="1.1" points="1308.45,-298.23 1306,-291.23 1303.55,-298.23 1308.45,-298.23"/>
<text text-anchor="middle" x="797.5" y="-544" font-family="Times New Roman" font-size="10.00">Redis pub/sub subscriptions</text>
</g>
<!-- Postgres -->
<g id="node21" class="node">
<title>Postgres</title>
<path fill="#e0f2fe" stroke="#334155" stroke-width="1.2" d="M1390.5,-744C1390.5,-744 1324.5,-744 1324.5,-744 1318.5,-744 1312.5,-738 1312.5,-732 1312.5,-732 1312.5,-720 1312.5,-720 1312.5,-714 1318.5,-708 1324.5,-708 1324.5,-708 1390.5,-708 1390.5,-708 1396.5,-708 1402.5,-714 1402.5,-720 1402.5,-720 1402.5,-732 1402.5,-732 1402.5,-738 1396.5,-744 1390.5,-744"/>
<text text-anchor="start" x="1321.5" y="-728.1" font-family="Times New Roman" font-size="13.00">PostgreSQL</text>
<text text-anchor="start" x="1327" y="-717.5" font-family="Times New Roman" font-size="10.00">users + RBAC</text>
</g>
<!-- Web&#45;&gt;Postgres -->
<g id="edge23" class="edge">
<title>Web&#45;&gt;Postgres</title>
<path fill="none" stroke="#334155" stroke-width="1.1" d="M482.2,-726C482.2,-726 1305.26,-726 1305.26,-726"/>
<polygon fill="#334155" stroke="#334155" stroke-width="1.1" points="1305.26,-728.45 1312.26,-726 1305.26,-723.55 1305.26,-728.45"/>
</g>
<!-- ClickHouse -->
<g id="node22" class="node">
<title>ClickHouse</title>
<path fill="#e0f2fe" stroke="#334155" stroke-width="1.2" d="M1427,-908C1427,-908 1288,-908 1288,-908 1282,-908 1276,-902 1276,-896 1276,-896 1276,-884 1276,-884 1276,-878 1282,-872 1288,-872 1288,-872 1427,-872 1427,-872 1433,-872 1439,-878 1439,-884 1439,-884 1439,-896 1439,-896 1439,-902 1433,-908 1427,-908"/>
<text text-anchor="start" x="1324" y="-892.1" font-family="Times New Roman" font-size="13.00">ClickHouse</text>
<text text-anchor="start" x="1285" y="-881.5" font-family="Times New Roman" font-size="10.00">logs + tags + hourly aggregates</text>
</g>
<!-- Web&#45;&gt;ClickHouse -->
<g id="edge24" class="edge">
<title>Web&#45;&gt;ClickHouse</title>
<path fill="none" stroke="#334155" stroke-width="1.1" d="M482.08,-735C684.29,-735 1281,-735 1281,-735 1281,-735 1281,-864.92 1281,-864.92"/>
<polygon fill="#334155" stroke="#334155" stroke-width="1.1" points="1278.55,-864.92 1281,-871.92 1283.45,-864.92 1278.55,-864.92"/>
</g>
<!-- Bot&#45;&gt;Redis -->
<g id="edge27" class="edge">
<title>Bot&#45;&gt;Redis</title>
<path fill="none" stroke="#334155" stroke-width="1.1" d="M484.53,-18C484.53,-18 1382,-18 1382,-18 1382,-18 1382,-247.66 1382,-247.66"/>
<polygon fill="#334155" stroke="#334155" stroke-width="1.1" points="484.53,-15.55 477.53,-18 484.53,-20.45 484.53,-15.55"/>
<polygon fill="#334155" stroke="#334155" stroke-width="1.1" points="1379.55,-247.66 1382,-254.66 1384.45,-247.66 1379.55,-247.66"/>
<text text-anchor="middle" x="797.5" y="-21" font-family="Times New Roman" font-size="10.00">sessions + outbound queue</text>
</g>
<!-- Unified -->
<g id="node14" class="node">
<title>Unified</title>
<path fill="#dbeafe" stroke="#334155" stroke-width="1.2" d="M1037.5,-291C1037.5,-291 939.5,-291 939.5,-291 933.5,-291 927.5,-285 927.5,-279 927.5,-279 927.5,-267 927.5,-267 927.5,-261 933.5,-255 939.5,-255 939.5,-255 1037.5,-255 1037.5,-255 1043.5,-255 1049.5,-261 1049.5,-267 1049.5,-267 1049.5,-279 1049.5,-279 1049.5,-285 1043.5,-291 1037.5,-291"/>
<text text-anchor="start" x="936.5" y="-275.1" font-family="Times New Roman" font-size="13.00">benthos&#45;pipeline</text>
<text text-anchor="start" x="959.5" y="-264.5" font-family="Times New Roman" font-size="10.00">unified.yaml</text>
</g>
<!-- TIngested&#45;&gt;Unified -->
<g id="edge3" class="edge">
<title>TIngested&#45;&gt;Unified</title>
<path fill="none" stroke="#334155" stroke-width="1.1" d="M685.65,-267.67C685.65,-267.67 920.26,-267.67 920.26,-267.67"/>
<polygon fill="#334155" stroke="#334155" stroke-width="1.1" points="920.26,-270.12 927.26,-267.67 920.26,-265.22 920.26,-270.12"/>
<text text-anchor="middle" x="797.5" y="-259" font-family="Times New Roman" font-size="10.00">consume</text>
</g>
<!-- TNormalized -->
<g id="node8" class="node">
<title>TNormalized</title>
<path fill="#fef3c7" stroke="#334155" stroke-width="1.2" d="M681,-362C681,-362 589,-362 589,-362 583,-362 577,-356 577,-350 577,-350 577,-338 577,-338 577,-332 583,-326 589,-326 589,-326 681,-326 681,-326 687,-326 693,-332 693,-338 693,-338 693,-350 693,-350 693,-356 687,-362 681,-362"/>
<text text-anchor="middle" x="635" y="-340.6" font-family="Times New Roman" font-size="13.00">logs&#45;normalized</text>
</g>
<!-- Classifier -->
<g id="node18" class="node">
<title>Classifier</title>
<path fill="#dcfce7" stroke="#334155" stroke-width="1.2" d="M1042.5,-408C1042.5,-408 934.5,-408 934.5,-408 928.5,-408 922.5,-402 922.5,-396 922.5,-396 922.5,-384 922.5,-384 922.5,-378 928.5,-372 934.5,-372 934.5,-372 1042.5,-372 1042.5,-372 1048.5,-372 1054.5,-378 1054.5,-384 1054.5,-384 1054.5,-396 1054.5,-396 1054.5,-402 1048.5,-408 1042.5,-408"/>
<text text-anchor="start" x="938.5" y="-392.1" font-family="Times New Roman" font-size="13.00">classifier&#45;worker</text>
<text text-anchor="start" x="931.5" y="-381.5" font-family="Times New Roman" font-size="10.00">Python + ONNX Runtime</text>
</g>
<!-- TNormalized&#45;&gt;Classifier -->
<g id="edge7" class="edge">
<title>TNormalized&#45;&gt;Classifier</title>
<path fill="none" stroke="#334155" stroke-width="1.1" d="M684,-362.18C684,-375.04 684,-390 684,-390 684,-390 915.43,-390 915.43,-390"/>
<polygon fill="#334155" stroke="#334155" stroke-width="1.1" points="915.43,-392.45 922.43,-390 915.43,-387.55 915.43,-392.45"/>
</g>
<!-- TPersist -->
<g id="node9" class="node">
<title>TPersist</title>
<path fill="#fef3c7" stroke="#334155" stroke-width="1.2" d="M667,-460C667,-460 603,-460 603,-460 597,-460 591,-454 591,-448 591,-448 591,-436 591,-436 591,-430 597,-424 603,-424 603,-424 667,-424 667,-424 673,-424 679,-430 679,-436 679,-436 679,-448 679,-448 679,-454 673,-460 667,-460"/>
<text text-anchor="middle" x="635" y="-438.6" font-family="Times New Roman" font-size="13.00">logs&#45;persist</text>
</g>
<!-- Persist -->
<g id="node15" class="node">
<title>Persist</title>
<path fill="#dbeafe" stroke="#334155" stroke-width="1.2" d="M1033.5,-648C1033.5,-648 943.5,-648 943.5,-648 937.5,-648 931.5,-642 931.5,-636 931.5,-636 931.5,-624 931.5,-624 931.5,-618 937.5,-612 943.5,-612 943.5,-612 1033.5,-612 1033.5,-612 1039.5,-612 1045.5,-618 1045.5,-624 1045.5,-624 1045.5,-636 1045.5,-636 1045.5,-642 1039.5,-648 1033.5,-648"/>
<text text-anchor="start" x="940.5" y="-632.1" font-family="Times New Roman" font-size="13.00">benthos&#45;persist</text>
<text text-anchor="start" x="960" y="-621.5" font-family="Times New Roman" font-size="10.00">persist.yaml</text>
</g>
<!-- TPersist&#45;&gt;Persist -->
<g id="edge11" class="edge">
<title>TPersist&#45;&gt;Persist</title>
<path fill="none" stroke="#334155" stroke-width="1.1" d="M679.12,-448C774.01,-448 989,-448 989,-448 989,-448 989,-604.88 989,-604.88"/>
<polygon fill="#334155" stroke="#334155" stroke-width="1.1" points="986.55,-604.88 989,-611.88 991.45,-604.88 986.55,-604.88"/>
</g>
<!-- TClassified -->
<g id="node10" class="node">
<title>TClassified</title>
<path fill="#fef3c7" stroke="#334155" stroke-width="1.2" d="M674.5,-833C674.5,-833 595.5,-833 595.5,-833 589.5,-833 583.5,-827 583.5,-821 583.5,-821 583.5,-809 583.5,-809 583.5,-803 589.5,-797 595.5,-797 595.5,-797 674.5,-797 674.5,-797 680.5,-797 686.5,-803 686.5,-809 686.5,-809 686.5,-821 686.5,-821 686.5,-827 680.5,-833 674.5,-833"/>
<text text-anchor="middle" x="635" y="-811.6" font-family="Times New Roman" font-size="13.00">logs&#45;classified</text>
</g>
<!-- Tags -->
<g id="node16" class="node">
<title>Tags</title>
<path fill="#dbeafe" stroke="#334155" stroke-width="1.2" d="M1026.5,-908C1026.5,-908 950.5,-908 950.5,-908 944.5,-908 938.5,-902 938.5,-896 938.5,-896 938.5,-884 938.5,-884 938.5,-878 944.5,-872 950.5,-872 950.5,-872 1026.5,-872 1026.5,-872 1032.5,-872 1038.5,-878 1038.5,-884 1038.5,-884 1038.5,-896 1038.5,-896 1038.5,-902 1032.5,-908 1026.5,-908"/>
<text text-anchor="start" x="947.5" y="-892.1" font-family="Times New Roman" font-size="13.00">benthos&#45;tags</text>
<text text-anchor="start" x="966" y="-881.5" font-family="Times New Roman" font-size="10.00">tags.yaml</text>
</g>
<!-- TClassified&#45;&gt;Tags -->
<g id="edge15" class="edge">
<title>TClassified&#45;&gt;Tags</title>
<path fill="none" stroke="#334155" stroke-width="1.1" d="M678,-833.3C678,-851.27 678,-876 678,-876 678,-876 931.27,-876 931.27,-876"/>
<polygon fill="#334155" stroke="#334155" stroke-width="1.1" points="931.27,-878.45 938.27,-876 931.27,-873.55 931.27,-878.45"/>
</g>
<!-- TAlerts -->
<g id="node11" class="node">
<title>TAlerts</title>
<path fill="#fef3c7" stroke="#334155" stroke-width="1.2" d="M678,-135C678,-135 592,-135 592,-135 586,-135 580,-129 580,-123 580,-123 580,-111 580,-111 580,-105 586,-99 592,-99 592,-99 678,-99 678,-99 684,-99 690,-105 690,-111 690,-111 690,-123 690,-123 690,-129 684,-135 678,-135"/>
<text text-anchor="middle" x="635" y="-113.6" font-family="Times New Roman" font-size="13.00">alerts&#45;ingested</text>
</g>
<!-- AlertForwarder -->
<g id="node17" class="node">
<title>AlertForwarder</title>
<path fill="#dbeafe" stroke="#334155" stroke-width="1.2" d="M1063,-208C1063,-208 914,-208 914,-208 908,-208 902,-202 902,-196 902,-196 902,-184 902,-184 902,-178 908,-172 914,-172 914,-172 1063,-172 1063,-172 1069,-172 1075,-178 1075,-184 1075,-184 1075,-196 1075,-196 1075,-202 1069,-208 1063,-208"/>
<text text-anchor="start" x="911" y="-192.1" font-family="Times New Roman" font-size="13.00">benthos&#45;alerts&#45;forwarder</text>
<text text-anchor="start" x="953.5" y="-181.5" font-family="Times New Roman" font-size="10.00">forwarder.yaml</text>
</g>
<!-- TAlerts&#45;&gt;AlertForwarder -->
<g id="edge19" class="edge">
<title>TAlerts&#45;&gt;AlertForwarder</title>
<path fill="none" stroke="#334155" stroke-width="1.1" d="M635,-135.04C635,-156.66 635,-190 635,-190 635,-190 894.57,-190 894.57,-190"/>
<polygon fill="#334155" stroke="#334155" stroke-width="1.1" points="894.57,-192.45 901.57,-190 894.57,-187.55 894.57,-192.45"/>
</g>
<!-- AlertWorker -->
<g id="node19" class="node">
<title>AlertWorker</title>
<path fill="#dcfce7" stroke="#334155" stroke-width="1.2" d="M1059,-125C1059,-125 918,-125 918,-125 912,-125 906,-119 906,-113 906,-113 906,-101 906,-101 906,-95 912,-89 918,-89 918,-89 1059,-89 1059,-89 1065,-89 1071,-95 1071,-101 1071,-101 1071,-113 1071,-113 1071,-119 1065,-125 1059,-125"/>
<text text-anchor="start" x="950.5" y="-109.1" font-family="Times New Roman" font-size="13.00">alert&#45;worker</text>
<text text-anchor="start" x="915" y="-98.5" font-family="Times New Roman" font-size="10.00">Node/Bun + KafkaJS + Redis Lua</text>
</g>
<!-- TAlerts&#45;&gt;AlertWorker -->
<g id="edge18" class="edge">
<title>TAlerts&#45;&gt;AlertWorker</title>
<path fill="none" stroke="#334155" stroke-width="1.1" d="M690.23,-112C690.23,-112 898.73,-112 898.73,-112"/>
<polygon fill="#334155" stroke="#334155" stroke-width="1.1" points="898.73,-114.45 905.73,-112 898.73,-109.55 898.73,-114.45"/>
</g>
<!-- TDLQLogs -->
<g id="node12" class="node">
<title>TDLQLogs</title>
<path fill="#fee2e2" stroke="#334155" stroke-width="1.2" d="M656.5,-916C656.5,-916 613.5,-916 613.5,-916 607.5,-916 601.5,-910 601.5,-904 601.5,-904 601.5,-892 601.5,-892 601.5,-886 607.5,-880 613.5,-880 613.5,-880 656.5,-880 656.5,-880 662.5,-880 668.5,-886 668.5,-892 668.5,-892 668.5,-904 668.5,-904 668.5,-910 662.5,-916 656.5,-916"/>
<text text-anchor="middle" x="635" y="-894.6" font-family="Times New Roman" font-size="13.00">dlq&#45;logs</text>
</g>
<!-- TDLQClickHouse -->
<g id="node13" class="node">
<title>TDLQClickHouse</title>
<path fill="#fee2e2" stroke="#334155" stroke-width="1.2" d="M675.5,-648C675.5,-648 594.5,-648 594.5,-648 588.5,-648 582.5,-642 582.5,-636 582.5,-636 582.5,-624 582.5,-624 582.5,-618 588.5,-612 594.5,-612 594.5,-612 675.5,-612 675.5,-612 681.5,-612 687.5,-618 687.5,-624 687.5,-624 687.5,-636 687.5,-636 687.5,-642 681.5,-648 675.5,-648"/>
<text text-anchor="middle" x="635" y="-626.6" font-family="Times New Roman" font-size="13.00">dlq&#45;clickhouse</text>
</g>
<!-- Unified&#45;&gt;TNormalized -->
<g id="edge5" class="edge">
<title>Unified&#45;&gt;TNormalized</title>
<path fill="none" stroke="#334155" stroke-width="1.1" d="M927.33,-282.5C826.15,-282.5 635,-282.5 635,-282.5 635,-282.5 635,-318.88 635,-318.88"/>
<polygon fill="#334155" stroke="#334155" stroke-width="1.1" points="632.55,-318.88 635,-325.88 637.45,-318.88 632.55,-318.88"/>
</g>
<!-- Unified&#45;&gt;TAlerts -->
<g id="edge6" class="edge">
<title>Unified&#45;&gt;TAlerts</title>
<path fill="none" stroke="#334155" stroke-width="1.1" d="M927.44,-261.33C871.72,-261.33 798,-261.33 798,-261.33 798,-261.33 798,-130 798,-130 798,-130 697.18,-130 697.18,-130"/>
<polygon fill="#334155" stroke="#334155" stroke-width="1.1" points="697.18,-127.55 690.18,-130 697.18,-132.45 697.18,-127.55"/>
<text text-anchor="middle" x="797.5" y="-196" font-family="Times New Roman" font-size="10.00">ERROR/CRITICAL only</text>
</g>
<!-- Unified&#45;&gt;Redis -->
<g id="edge4" class="edge">
<title>Unified&#45;&gt;Redis</title>
<path fill="none" stroke="#334155" stroke-width="1.1" d="M1049.85,-279C1049.85,-279 1277.25,-279 1277.25,-279"/>
<polygon fill="#334155" stroke="#334155" stroke-width="1.1" points="1277.25,-281.45 1284.25,-279 1277.25,-276.55 1277.25,-281.45"/>
<text text-anchor="middle" x="1175.5" y="-276" font-family="Times New Roman" font-size="10.00">Status=Ingested</text>
</g>
<!-- Persist&#45;&gt;TDLQClickHouse -->
<g id="edge14" class="edge">
<title>Persist&#45;&gt;TDLQClickHouse</title>
<path fill="none" stroke="#334155" stroke-width="1.1" d="M931.31,-630C931.31,-630 694.78,-630 694.78,-630"/>
<polygon fill="#334155" stroke="#334155" stroke-width="1.1" points="694.78,-627.55 687.78,-630 694.78,-632.45 694.78,-627.55"/>
<text text-anchor="middle" x="797.5" y="-626" font-family="Times New Roman" font-size="10.00">fallback</text>
</g>
<!-- Persist&#45;&gt;Redis -->
<g id="edge13" class="edge">
<title>Persist&#45;&gt;Redis</title>
<path fill="none" stroke="#334155" stroke-width="1.1" d="M1045.81,-630C1135.53,-630 1299,-630 1299,-630 1299,-630 1299,-298.19 1299,-298.19"/>
<polygon fill="#334155" stroke="#334155" stroke-width="1.1" points="1301.45,-298.19 1299,-291.19 1296.55,-298.19 1301.45,-298.19"/>
<text text-anchor="middle" x="1175.5" y="-627" font-family="Times New Roman" font-size="10.00">Status=Persisted</text>
</g>
<!-- Persist&#45;&gt;ClickHouse -->
<g id="edge12" class="edge">
<title>Persist&#45;&gt;ClickHouse</title>
<path fill="none" stroke="#334155" stroke-width="1.1" d="M1042,-648.27C1042,-706.51 1042,-884 1042,-884 1042,-884 1268.84,-884 1268.84,-884"/>
<polygon fill="#334155" stroke="#334155" stroke-width="1.1" points="1268.84,-886.45 1275.84,-884 1268.84,-881.55 1268.84,-886.45"/>
<text text-anchor="middle" x="1175.5" y="-814" font-family="Times New Roman" font-size="10.00">JSONEachRow batch insert</text>
</g>
<!-- Tags&#45;&gt;TDLQLogs -->
<g id="edge17" class="edge">
<title>Tags&#45;&gt;TDLQLogs</title>
<path fill="none" stroke="#334155" stroke-width="1.1" d="M938.23,-894C938.23,-894 675.65,-894 675.65,-894"/>
<polygon fill="#334155" stroke="#334155" stroke-width="1.1" points="675.66,-891.55 668.65,-894 675.65,-896.45 675.66,-891.55"/>
<text text-anchor="middle" x="797.5" y="-901" font-family="Times New Roman" font-size="10.00">fallback</text>
</g>
<!-- Tags&#45;&gt;ClickHouse -->
<g id="edge16" class="edge">
<title>Tags&#45;&gt;ClickHouse</title>
<path fill="none" stroke="#334155" stroke-width="1.1" d="M1038.65,-896C1038.65,-896 1268.94,-896 1268.94,-896"/>
<polygon fill="#334155" stroke="#334155" stroke-width="1.1" points="1268.94,-898.45 1275.94,-896 1268.94,-893.55 1268.94,-898.45"/>
<text text-anchor="middle" x="1175.5" y="-893" font-family="Times New Roman" font-size="10.00">tag insert</text>
</g>
<!-- AlertForwarder&#45;&gt;Redis -->
<g id="edge21" class="edge">
<title>AlertForwarder&#45;&gt;Redis</title>
<path fill="none" stroke="#334155" stroke-width="1.1" d="M1065,-208.25C1065,-231.02 1065,-267 1065,-267 1065,-267 1277.44,-267 1277.44,-267"/>
<polygon fill="#334155" stroke="#334155" stroke-width="1.1" points="1277.44,-269.45 1284.44,-267 1277.44,-264.55 1277.44,-269.45"/>
<text text-anchor="middle" x="1175.5" y="-203" font-family="Times New Roman" font-size="10.00">ALERT_STREAM</text>
</g>
<!-- Classifier&#45;&gt;TPersist -->
<g id="edge9" class="edge">
<title>Classifier&#45;&gt;TPersist</title>
<path fill="none" stroke="#334155" stroke-width="1.1" d="M926,-408.18C926,-421.04 926,-436 926,-436 926,-436 686.2,-436 686.2,-436"/>
<polygon fill="#334155" stroke="#334155" stroke-width="1.1" points="686.2,-433.55 679.2,-436 686.2,-438.45 686.2,-433.55"/>
<text text-anchor="middle" x="797.5" y="-428" font-family="Times New Roman" font-size="10.00">enriched log</text>
</g>
<!-- Classifier&#45;&gt;TClassified -->
<g id="edge8" class="edge">
<title>Classifier&#45;&gt;TClassified</title>
<path fill="none" stroke="#334155" stroke-width="1.1" d="M929,-408.26C929,-489.61 929,-815 929,-815 929,-815 693.55,-815 693.55,-815"/>
<polygon fill="#334155" stroke="#334155" stroke-width="1.1" points="693.55,-812.55 686.55,-815 693.55,-817.45 693.55,-812.55"/>
<text text-anchor="middle" x="797.5" y="-689" font-family="Times New Roman" font-size="10.00">classified tags</text>
</g>
<!-- Classifier&#45;&gt;Redis -->
<g id="edge10" class="edge">
<title>Classifier&#45;&gt;Redis</title>
<path fill="none" stroke="#334155" stroke-width="1.1" d="M1054.73,-390C1144.03,-390 1292,-390 1292,-390 1292,-390 1292,-298.02 1292,-298.02"/>
<polygon fill="#334155" stroke="#334155" stroke-width="1.1" points="1294.45,-298.02 1292,-291.02 1289.55,-298.02 1294.45,-298.02"/>
<text text-anchor="middle" x="1175.5" y="-366" font-family="Times New Roman" font-size="10.00">TAGS / Classified events</text>
</g>
<!-- AlertWorker&#45;&gt;Redis -->
<g id="edge20" class="edge">
<title>AlertWorker&#45;&gt;Redis</title>
<path fill="none" stroke="#334155" stroke-width="1.1" d="M1071.26,-107C1173.47,-107 1334,-107 1334,-107 1334,-107 1334,-247.92 1334,-247.92"/>
<polygon fill="#334155" stroke="#334155" stroke-width="1.1" points="1331.55,-247.92 1334,-254.92 1336.45,-247.92 1331.55,-247.92"/>
<text text-anchor="middle" x="1175.5" y="-120" font-family="Times New Roman" font-size="10.00">dedup + active alert state</text>
</g>
</g>
</svg>

