<svg xmlns="http://www.w3.org/2000/svg" width="1120" height="800" viewBox="0 0 1120 800" role="img" aria-label="Telegram account linking and scoped notification delivery">
<defs><marker id="arrow" markerWidth="10" markerHeight="8" refX="9" refY="4" orient="auto" markerUnits="strokeWidth"><path d="M0,0 L10,4 L0,8 z" fill="#334155"/></marker><marker id="arrowopen" markerWidth="10" markerHeight="8" refX="9" refY="4" orient="auto" markerUnits="strokeWidth"><path d="M0,0 L10,4 L0,8" fill="none" stroke="#334155" stroke-width="1.2"/></marker></defs>
<rect x="0" y="0" width="100%" height="100%" fill="white"/>
<text x="560.0" y="32" text-anchor="middle" font-family="Times New Roman, serif" font-size="22" font-weight="600" fill="#0f172a">Telegram account linking and scoped notification delivery</text>
<rect x="14.0" y="70" width="112" height="42" rx="8" fill="#f8fafc" stroke="#334155" stroke-width="1.1"/>
<text x="70.0" y="88" text-anchor="middle" font-family="Times New Roman, serif" font-size="13" font-weight="600" fill="#0f172a">Web</text>
<text x="70.0" y="103" text-anchor="middle" font-family="Times New Roman, serif" font-size="10" font-weight="400" fill="#0f172a">User</text>
<line x1="70.0" y1="112" x2="70.0" y2="755" stroke="#94a3b8" stroke-width="1" stroke-dasharray="5 6"/>
<rect x="210.0" y="70" width="112" height="42" rx="8" fill="#f8fafc" stroke="#334155" stroke-width="1.1"/>
<text x="266.0" y="88" text-anchor="middle" font-family="Times New Roman, serif" font-size="13" font-weight="600" fill="#0f172a">Bun Web</text>
<text x="266.0" y="103" text-anchor="middle" font-family="Times New Roman, serif" font-size="10" font-weight="400" fill="#0f172a">Server</text>
<line x1="266.0" y1="112" x2="266.0" y2="755" stroke="#94a3b8" stroke-width="1" stroke-dasharray="5 6"/>
<rect x="406.0" y="70" width="112" height="42" rx="8" fill="#f8fafc" stroke="#334155" stroke-width="1.1"/>
<text x="462.0" y="88" text-anchor="middle" font-family="Times New Roman, serif" font-size="13" font-weight="600" fill="#0f172a">Redis</text>
<line x1="462.0" y1="112" x2="462.0" y2="755" stroke="#94a3b8" stroke-width="1" stroke-dasharray="5 6"/>
<rect x="602.0" y="70" width="112" height="42" rx="8" fill="#f8fafc" stroke="#334155" stroke-width="1.1"/>
<text x="658.0" y="88" text-anchor="middle" font-family="Times New Roman, serif" font-size="13" font-weight="600" fill="#0f172a">Telegram</text>
<text x="658.0" y="103" text-anchor="middle" font-family="Times New Roman, serif" font-size="10" font-weight="400" fill="#0f172a">Bot</text>
<line x1="658.0" y1="112" x2="658.0" y2="755" stroke="#94a3b8" stroke-width="1" stroke-dasharray="5 6"/>
<rect x="798.0" y="70" width="112" height="42" rx="8" fill="#f8fafc" stroke="#334155" stroke-width="1.1"/>
<text x="854.0" y="88" text-anchor="middle" font-family="Times New Roman, serif" font-size="13" font-weight="600" fill="#0f172a">Telegram</text>
<text x="854.0" y="103" text-anchor="middle" font-family="Times New Roman, serif" font-size="10" font-weight="400" fill="#0f172a">Chat</text>
<line x1="854.0" y1="112" x2="854.0" y2="755" stroke="#94a3b8" stroke-width="1" stroke-dasharray="5 6"/>
<rect x="994.0" y="70" width="112" height="42" rx="8" fill="#f8fafc" stroke="#334155" stroke-width="1.1"/>
<text x="1050.0" y="88" text-anchor="middle" font-family="Times New Roman, serif" font-size="13" font-weight="600" fill="#0f172a">Alert</text>
<text x="1050.0" y="103" text-anchor="middle" font-family="Times New Roman, serif" font-size="10" font-weight="400" fill="#0f172a">Worker</text>
<line x1="1050.0" y1="112" x2="1050.0" y2="755" stroke="#94a3b8" stroke-width="1" stroke-dasharray="5 6"/>
<line x1="80.0" y1="136" x2="256.0" y2="136" stroke="#334155" stroke-width="1.25"  marker-end="url(#arrow)"/>
<rect x="91.05" y="114" width="153.9" height="18" rx="5" fill="white" stroke="none" opacity="0.93"/>
<text x="168.0" y="128" text-anchor="middle" font-family="Times New Roman, serif" font-size="12" fill="#0f172a">request Telegram link token</text>
<text x="76.0" y="130" text-anchor="middle" font-family="Times New Roman, serif" font-size="10" fill="#64748b">1</text>
<line x1="276.0" y1="178" x2="452.0" y2="178" stroke="#334155" stroke-width="1.25"  marker-end="url(#arrow)"/>
<rect x="281.35" y="156" width="165.3" height="18" rx="5" fill="white" stroke="none" opacity="0.93"/>
<text x="364.0" y="170" text-anchor="middle" font-family="Times New Roman, serif" font-size="12" fill="#0f172a">store one-time token with TTL</text>
<text x="272.0" y="172" text-anchor="middle" font-family="Times New Roman, serif" font-size="10" fill="#64748b">2</text>
<line x1="256.0" y1="220" x2="80.0" y2="220" stroke="#334155" stroke-width="1.25" stroke-dasharray="6 5" marker-end="url(#arrowopen)"/>
<rect x="113.85" y="198" width="108.3" height="18" rx="5" fill="white" stroke="none" opacity="0.93"/>
<text x="168.0" y="212" text-anchor="middle" font-family="Times New Roman, serif" font-size="12" fill="#0f172a">display /link token</text>
<text x="260.0" y="214" text-anchor="middle" font-family="Times New Roman, serif" font-size="10" fill="#64748b">3</text>
<line x1="844.0" y1="262" x2="668.0" y2="262" stroke="#334155" stroke-width="1.25"  marker-end="url(#arrow)"/>
<rect x="711.0" y="240" width="90" height="18" rx="5" fill="white" stroke="none" opacity="0.93"/>
<text x="756.0" y="254" text-anchor="middle" font-family="Times New Roman, serif" font-size="12" fill="#0f172a">/link &lt;token&gt;</text>
<text x="848.0" y="256" text-anchor="middle" font-family="Times New Roman, serif" font-size="10" fill="#64748b">4</text>
<line x1="648.0" y1="304" x2="472.0" y2="304" stroke="#334155" stroke-width="1.25"  marker-end="url(#arrow)"/>
<rect x="457.4" y="282" width="205.20000000000002" height="18" rx="5" fill="white" stroke="none" opacity="0.93"/>
<text x="560.0" y="296" text-anchor="middle" font-family="Times New Roman, serif" font-size="12" fill="#0f172a">consume token and store chat mapping</text>
<text x="652.0" y="298" text-anchor="middle" font-family="Times New Roman, serif" font-size="10" fill="#64748b">5</text>
<line x1="472.0" y1="346" x2="648.0" y2="346" stroke="#334155" stroke-width="1.25" stroke-dasharray="6 5" marker-end="url(#arrowopen)"/>
<rect x="463.1" y="324" width="193.8" height="18" rx="5" fill="white" stroke="none" opacity="0.93"/>
<text x="560.0" y="338" text-anchor="middle" font-family="Times New Roman, serif" font-size="12" fill="#0f172a">linked user, role and allowed_apps</text>
<text x="468.0" y="340" text-anchor="middle" font-family="Times New Roman, serif" font-size="10" fill="#64748b">6</text>
<line x1="668.0" y1="388" x2="844.0" y2="388" stroke="#334155" stroke-width="1.25" stroke-dasharray="6 5" marker-end="url(#arrowopen)"/>
<rect x="707.55" y="366" width="96.9" height="18" rx="5" fill="white" stroke="none" opacity="0.93"/>
<text x="756.0" y="380" text-anchor="middle" font-family="Times New Roman, serif" font-size="12" fill="#0f172a">link confirmation</text>
<text x="664.0" y="382" text-anchor="middle" font-family="Times New Roman, serif" font-size="10" fill="#64748b">7</text>
<line x1="844.0" y1="430" x2="668.0" y2="430" stroke="#334155" stroke-width="1.25"  marker-end="url(#arrow)"/>
<rect x="711.0" y="408" width="90" height="18" rx="5" fill="white" stroke="none" opacity="0.93"/>
<text x="756.0" y="422" text-anchor="middle" font-family="Times New Roman, serif" font-size="12" fill="#0f172a">/subscribe</text>
<text x="848.0" y="424" text-anchor="middle" font-family="Times New Roman, serif" font-size="10" fill="#64748b">8</text>
<line x1="648.0" y1="472" x2="472.0" y2="472" stroke="#334155" stroke-width="1.25"  marker-end="url(#arrow)"/>
<rect x="491.6" y="450" width="136.8" height="18" rx="5" fill="white" stroke="none" opacity="0.93"/>
<text x="560.0" y="464" text-anchor="middle" font-family="Times New Roman, serif" font-size="12" fill="#0f172a">mark subscription active</text>
<text x="652.0" y="466" text-anchor="middle" font-family="Times New Roman, serif" font-size="10" fill="#64748b">9</text>
<line x1="668.0" y1="514" x2="844.0" y2="514" stroke="#334155" stroke-width="1.25" stroke-dasharray="6 5" marker-end="url(#arrowopen)"/>
<rect x="699.0" y="492" width="114.0" height="18" rx="5" fill="white" stroke="none" opacity="0.93"/>
<text x="756.0" y="506" text-anchor="middle" font-family="Times New Roman, serif" font-size="12" fill="#0f172a">subscription enabled</text>
<text x="664.0" y="508" text-anchor="middle" font-family="Times New Roman, serif" font-size="10" fill="#64748b">10</text>
<line x1="1040.0" y1="556" x2="472.0" y2="556" stroke="#334155" stroke-width="1.25"  marker-end="url(#arrow)"/>
<rect x="667.65" y="534" width="176.70000000000002" height="18" rx="5" fill="white" stroke="none" opacity="0.93"/>
<text x="756.0" y="548" text-anchor="middle" font-family="Times New Roman, serif" font-size="12" fill="#0f172a">enqueue telegram_outbound alert</text>
<text x="1044.0" y="550" text-anchor="middle" font-family="Times New Roman, serif" font-size="10" fill="#64748b">11</text>
<line x1="472.0" y1="598" x2="648.0" y2="598" stroke="#334155" stroke-width="1.25"  marker-end="url(#arrow)"/>
<rect x="508.7" y="576" width="102.60000000000001" height="18" rx="5" fill="white" stroke="none" opacity="0.93"/>
<text x="560.0" y="590" text-anchor="middle" font-family="Times New Roman, serif" font-size="12" fill="#0f172a">outbound alert job</text>
<text x="468.0" y="592" text-anchor="middle" font-family="Times New Roman, serif" font-size="10" fill="#64748b">12</text>
<line x1="648.0" y1="640" x2="472.0" y2="640" stroke="#334155" stroke-width="1.25"  marker-end="url(#arrow)"/>
<rect x="437.45" y="618" width="245.1" height="18" rx="5" fill="white" stroke="none" opacity="0.93"/>
<text x="560.0" y="632" text-anchor="middle" font-family="Times New Roman, serif" font-size="12" fill="#0f172a">validate subscription and application scope</text>
<text x="652.0" y="634" text-anchor="middle" font-family="Times New Roman, serif" font-size="10" fill="#64748b">13</text>
<line x1="668.0" y1="682" x2="844.0" y2="682" stroke="#334155" stroke-width="1.25"  marker-end="url(#arrow)"/>
<rect x="684.75" y="660" width="142.5" height="18" rx="5" fill="white" stroke="none" opacity="0.93"/>
<text x="756.0" y="674" text-anchor="middle" font-family="Times New Roman, serif" font-size="12" fill="#0f172a">send scoped alert message</text>
<text x="664.0" y="676" text-anchor="middle" font-family="Times New Roman, serif" font-size="10" fill="#64748b">14</text>
</svg>
