<?xml version="1.0" encoding="UTF-8" standalone="no"?>
<!DOCTYPE svg PUBLIC "-//W3C//DTD SVG 1.1//EN"
 "http://www.w3.org/Graphics/SVG/1.1/DTD/svg11.dtd">
<!-- Generated by graphviz version 2.42.4 (0)
 -->
<!-- Title: G Pages: 1 -->
<svg width="916pt" height="823pt"
 viewBox="3.60 3.60 912.60 819.60" xmlns="http://www.w3.org/2000/svg" xmlns:xlink="http://www.w3.org/1999/xlink">
<g id="graph0" class="graph" transform="scale(1 1) rotate(0) translate(21.6 801.6)">
<title>G</title>
<polygon fill="white" stroke="transparent" points="-18,18 -18,-798 891,-798 891,18 -18,18"/>
<text text-anchor="middle" x="436.5" y="-760" font-family="Times New Roman" font-size="20.00">LogRider data model and runtime&#45;state relationships</text>
<!-- USERS -->
<g id="node1" class="node">
<title>USERS</title>
<polygon fill="#f5f3ff" stroke="transparent" points="1,-435.5 1,-462.5 131,-462.5 131,-435.5 1,-435.5"/>
<text text-anchor="start" x="7" y="-446.3" font-family="Times New Roman" font-weight="bold" font-size="14.00">POSTGRES_USERS</text>
<text text-anchor="start" x="7" y="-418.3" font-family="Times New Roman" font-size="14.00">id PK</text>
<text text-anchor="start" x="7" y="-391.3" font-family="Times New Roman" font-size="14.00">username UK</text>
<text text-anchor="start" x="7" y="-364.3" font-family="Times New Roman" font-size="14.00">password_hash</text>
<text text-anchor="start" x="7" y="-337.3" font-family="Times New Roman" font-size="14.00">role</text>
<text text-anchor="start" x="7" y="-310.3" font-family="Times New Roman" font-size="14.00">allowed_apps</text>
<polygon fill="none" stroke="#334155" points="0,-299.5 0,-463.5 132,-463.5 132,-299.5 0,-299.5"/>
</g>
<!-- LOGS -->
<g id="node2" class="node">
<title>LOGS</title>
<polygon fill="#dbeafe" stroke="transparent" points="331.5,-448.5 331.5,-475.5 482.5,-475.5 482.5,-448.5 331.5,-448.5"/>
<text text-anchor="start" x="337.5" y="-459.3" font-family="Times New Roman" font-weight="bold" font-size="14.00">CH_LOGS_ENRICHED</text>
<text text-anchor="start" x="337.5" y="-431.3" font-family="Times New Roman" font-size="14.00">Application_Name</text>
<text text-anchor="start" x="337.5" y="-404.3" font-family="Times New Roman" font-size="14.00">Log_Level</text>
<text text-anchor="start" x="337.5" y="-377.3" font-family="Times New Roman" font-size="14.00">Message</text>
<text text-anchor="start" x="337.5" y="-350.3" font-family="Times New Roman" font-size="14.00">Timestamp</text>
<text text-anchor="start" x="337.5" y="-323.3" font-family="Times New Roman" font-size="14.00">Trace_ID</text>
<text text-anchor="start" x="337.5" y="-296.3" font-family="Times New Roman" font-size="14.00">Tags</text>
<polygon fill="none" stroke="#334155" points="330,-286 330,-477 483,-477 483,-286 330,-286"/>
</g>
<!-- USERS&#45;&gt;LOGS -->
<g id="edge1" class="edge">
<title>USERS&#45;&gt;LOGS</title>
<path fill="none" stroke="#334155" stroke-width="1.1" d="M132.06,-381.5C132.06,-381.5 322.92,-381.5 322.92,-381.5"/>
<polygon fill="#334155" stroke="#334155" stroke-width="1.1" points="322.92,-383.95 329.92,-381.5 322.92,-379.05 322.92,-383.95"/>
<text text-anchor="middle" x="231" y="-384.5" font-family="Times New Roman" font-size="10.00">RBAC filters allowed_apps</text>
</g>
<!-- TAGS -->
<g id="node3" class="node">
<title>TAGS</title>
<polygon fill="#fef3c7" stroke="transparent" points="715,-721.5 715,-748.5 846,-748.5 846,-721.5 715,-721.5"/>
<text text-anchor="start" x="732" y="-732.3" font-family="Times New Roman" font-weight="bold" font-size="14.00">CH_LOG_TAGS</text>
<text text-anchor="start" x="721" y="-704.3" font-family="Times New Roman" font-size="14.00">Trace_ID</text>
<text text-anchor="start" x="721" y="-677.3" font-family="Times New Roman" font-size="14.00">Application_Name</text>
<text text-anchor="start" x="721" y="-650.3" font-family="Times New Roman" font-size="14.00">Tags</text>
<text text-anchor="start" x="721" y="-623.3" font-family="Times New Roman" font-size="14.00">Timestamp</text>
<polygon fill="none" stroke="#334155" points="713.5,-613 713.5,-750 846.5,-750 846.5,-613 713.5,-613"/>
</g>
<!-- LOGS&#45;&gt;TAGS -->
<g id="edge2" class="edge">
<title>LOGS&#45;&gt;TAGS</title>
<path fill="none" stroke="#334155" stroke-width="1.1" d="M407,-477.25C407,-565.04 407,-681.5 407,-681.5 407,-681.5 706.32,-681.5 706.32,-681.5"/>
<polygon fill="#334155" stroke="#334155" stroke-width="1.1" points="706.32,-683.95 713.32,-681.5 706.32,-679.05 706.32,-683.95"/>
<text text-anchor="middle" x="585" y="-684.5" font-family="Times New Roman" font-size="10.00">Trace_ID joins tags</text>
</g>
<!-- HEALTH -->
<g id="node4" class="node">
<title>HEALTH</title>
<polygon fill="#dcfce7" stroke="transparent" points="688,-526.5 688,-553.5 872,-553.5 872,-526.5 688,-526.5"/>
<text text-anchor="start" x="694" y="-537.3" font-family="Times New Roman" font-weight="bold" font-size="14.00">CH_HOURLY_HEALTH_MV</text>
<text text-anchor="start" x="694" y="-509.3" font-family="Times New Roman" font-size="14.00">hour</text>
<text text-anchor="start" x="694" y="-482.3" font-family="Times New Roman" font-size="14.00">Application_Name</text>
<text text-anchor="start" x="694" y="-455.3" font-family="Times New Roman" font-size="14.00">error_count</text>
<text text-anchor="start" x="694" y="-428.3" font-family="Times New Roman" font-size="14.00">total_count</text>
<polygon fill="none" stroke="#334155" points="687,-418 687,-555 873,-555 873,-418 687,-418"/>
</g>
<!-- LOGS&#45;&gt;HEALTH -->
<g id="edge3" class="edge">
<title>LOGS&#45;&gt;HEALTH</title>
<path fill="none" stroke="#334155" stroke-width="1.1" d="M483.44,-447.5C483.44,-447.5 679.97,-447.5 679.97,-447.5"/>
<polygon fill="#334155" stroke="#334155" stroke-width="1.1" points="679.97,-449.95 686.97,-447.5 679.97,-445.05 679.97,-449.95"/>
<text text-anchor="middle" x="585" y="-489.5" font-family="Times New Roman" font-size="10.00">hourly aggregate</text>
</g>
<!-- ALERTS -->
<g id="node5" class="node">
<title>ALERTS</title>
<polygon fill="#fee2e2" stroke="transparent" points="705,-331.5 705,-358.5 856,-358.5 856,-331.5 705,-331.5"/>
<text text-anchor="start" x="713" y="-342.3" font-family="Times New Roman" font-weight="bold" font-size="14.00">REDIS_ALERT_STATE</text>
<text text-anchor="start" x="711" y="-314.3" font-family="Times New Roman" font-size="14.00">signature</text>
<text text-anchor="start" x="711" y="-287.3" font-family="Times New Roman" font-size="14.00">application</text>
<text text-anchor="start" x="711" y="-260.3" font-family="Times New Roman" font-size="14.00">count</text>
<text text-anchor="start" x="711" y="-233.3" font-family="Times New Roman" font-size="14.00">first_seen / last_seen</text>
<text text-anchor="start" x="711" y="-206.3" font-family="Times New Roman" font-size="14.00">threshold_state</text>
<polygon fill="none" stroke="#334155" points="703.5,-195.5 703.5,-359.5 856.5,-359.5 856.5,-195.5 703.5,-195.5"/>
</g>
<!-- LOGS&#45;&gt;ALERTS -->
<g id="edge4" class="edge">
<title>LOGS&#45;&gt;ALERTS</title>
<path fill="none" stroke="#334155" stroke-width="1.1" d="M483.44,-322.75C483.44,-322.75 696.48,-322.75 696.48,-322.75"/>
<polygon fill="#334155" stroke="#334155" stroke-width="1.1" points="696.48,-325.2 703.48,-322.75 696.48,-320.3 696.48,-325.2"/>
<text text-anchor="middle" x="585" y="-280.5" font-family="Times New Roman" font-size="10.00">ERROR/CRITICAL signature</text>
</g>
<!-- WSE -->
<g id="node6" class="node">
<title>WSE</title>
<polygon fill="#e0f2fe" stroke="transparent" points="712,-108.5 712,-135.5 848,-135.5 848,-108.5 712,-108.5"/>
<text text-anchor="start" x="718" y="-119.3" font-family="Times New Roman" font-weight="bold" font-size="14.00">REDIS_WS_EVENTS</text>
<text text-anchor="start" x="718" y="-91.3" font-family="Times New Roman" font-size="14.00">Trace_ID</text>
<text text-anchor="start" x="718" y="-64.3" font-family="Times New Roman" font-size="14.00">Status</text>
<text text-anchor="start" x="718" y="-37.3" font-family="Times New Roman" font-size="14.00">Application_Name</text>
<text text-anchor="start" x="718" y="-10.3" font-family="Times New Roman" font-size="14.00">event_type</text>
<polygon fill="none" stroke="#334155" points="711,0 711,-137 849,-137 849,0 711,0"/>
</g>
<!-- LOGS&#45;&gt;WSE -->
<g id="edge5" class="edge">
<title>LOGS&#45;&gt;WSE</title>
<path fill="none" stroke="#334155" stroke-width="1.1" d="M407,-285.89C407,-193.84 407,-68.5 407,-68.5 407,-68.5 703.72,-68.5 703.72,-68.5"/>
<polygon fill="#334155" stroke="#334155" stroke-width="1.1" points="703.72,-70.95 710.72,-68.5 703.72,-66.05 703.72,-70.95"/>
<text text-anchor="middle" x="585" y="-71.5" font-family="Times New Roman" font-size="10.00">lifecycle updates</text>
</g>
</g>
</svg>

